# Blender v2.78 (sub 0) OBJ File: 'arrow.blend'
# www.blender.org
mtllib arrow.mtl
o Cylinder
v 0.000000 0.015878 -0.489106
v 0.000000 3.371927 -0.489106
v 0.095420 0.015878 -0.479708
v 0.095420 3.371927 -0.479708
v 0.187173 0.015878 -0.451875
v 0.187173 3.371927 -0.451875
v 0.271733 0.015878 -0.406677
v 0.271733 3.371927 -0.406677
v 0.345850 0.015878 -0.345850
v 0.345850 3.371927 -0.345850
v 0.406677 0.015878 -0.271733
v 0.406677 3.371927 -0.271733
v 0.451875 0.015878 -0.187173
v 0.451875 3.371927 -0.187173
v 0.479708 0.015878 -0.095420
v 0.479708 3.371927 -0.095420
v 0.489106 0.015878 -0.000000
v 0.489106 3.371927 -0.000000
v 0.479708 0.015878 0.095420
v 0.479708 3.371927 0.095420
v 0.451875 0.015878 0.187173
v 0.451875 3.371927 0.187173
v 0.406677 0.015878 0.271733
v 0.406677 3.371927 0.271733
v 0.345850 0.015878 0.345850
v 0.345850 3.371927 0.345850
v 0.271733 0.015878 0.406677
v 0.271733 3.371927 0.406677
v 0.187173 0.015878 0.451875
v 0.187173 3.371927 0.451875
v 0.095420 0.015878 0.479708
v 0.095420 3.371927 0.479708
v -0.000000 0.015878 0.489106
v -0.000000 3.371927 0.489106
v -0.095420 0.015878 0.479708
v -0.095420 3.371927 0.479708
v -0.187173 0.015878 0.451875
v -0.187173 3.371927 0.451875
v -0.271733 0.015878 0.406677
v -0.271733 3.371927 0.406677
v -0.345850 0.015878 0.345850
v -0.345850 3.371927 0.345850
v -0.406677 0.015878 0.271732
v -0.406677 3.371927 0.271732
v -0.451875 0.015878 0.187172
v -0.451875 3.371927 0.187172
v -0.479708 0.015878 0.095419
v -0.479708 3.371927 0.095419
v -0.489106 0.015878 -0.000000
v -0.489106 3.371927 -0.000000
v -0.479708 0.015878 -0.095420
v -0.479708 3.371927 -0.095420
v -0.451875 0.015878 -0.187173
v -0.451875 3.371927 -0.187173
v -0.406676 0.015878 -0.271733
v -0.406676 3.371927 -0.271733
v -0.345850 0.015878 -0.345851
v -0.345850 3.371927 -0.345851
v -0.271732 0.015878 -0.406677
v -0.271732 3.371927 -0.406677
v -0.187172 0.015878 -0.451875
v -0.187172 3.371927 -0.451875
v -0.095419 0.015878 -0.479708
v -0.095419 3.371927 -0.479708
v 0.000000 3.373137 -1.000000
v 0.195090 3.373137 -0.980785
v 0.382683 3.373137 -0.923880
v 0.555570 3.373137 -0.831470
v 0.707107 3.373137 -0.707107
v 0.831470 3.373137 -0.555570
v 0.923880 3.373137 -0.382683
v 0.980785 3.373137 -0.195090
v 1.000000 3.373137 -0.000000
v 0.000000 5.373137 0.000000
v 0.980785 3.373137 0.195090
v 0.923880 3.373137 0.382683
v 0.831470 3.373137 0.555570
v 0.707107 3.373137 0.707107
v 0.555570 3.373137 0.831470
v 0.382683 3.373137 0.923880
v 0.195090 3.373137 0.980785
v -0.000000 3.373137 1.000000
v -0.195091 3.373137 0.980785
v -0.382684 3.373137 0.923879
v -0.555571 3.373137 0.831469
v -0.707107 3.373137 0.707106
v -0.831470 3.373137 0.555570
v -0.923880 3.373137 0.382683
v -0.980785 3.373137 0.195089
v -1.000000 3.373137 -0.000001
v -0.980785 3.373137 -0.195091
v -0.923879 3.373137 -0.382684
v -0.831469 3.373137 -0.555571
v -0.707106 3.373137 -0.707108
v -0.555569 3.373137 -0.831470
v -0.382682 3.373137 -0.923880
v -0.195089 3.373137 -0.980785
vn 0.0980 0.0000 -0.9952
vn 0.2903 0.0000 -0.9569
vn 0.4714 0.0000 -0.8819
vn 0.6344 0.0000 -0.7730
vn 0.7730 0.0000 -0.6344
vn 0.8819 0.0000 -0.4714
vn 0.9569 0.0000 -0.2903
vn 0.9952 0.0000 -0.0980
vn 0.9952 0.0000 0.0980
vn 0.9569 0.0000 0.2903
vn 0.8819 0.0000 0.4714
vn 0.7730 0.0000 0.6344
vn 0.6344 0.0000 0.7730
vn 0.4714 0.0000 0.8819
vn 0.2903 0.0000 0.9569
vn 0.0980 0.0000 0.9952
vn -0.0980 0.0000 0.9952
vn -0.2903 0.0000 0.9569
vn -0.4714 0.0000 0.8819
vn -0.6344 0.0000 0.7730
vn -0.7730 0.0000 0.6344
vn -0.8819 0.0000 0.4714
vn -0.9569 0.0000 0.2903
vn -0.9952 0.0000 0.0980
vn -0.9952 0.0000 -0.0980
vn -0.9569 0.0000 -0.2903
vn -0.8819 0.0000 -0.4714
vn -0.7730 0.0000 -0.6344
vn -0.6344 0.0000 -0.7730
vn -0.4714 0.0000 -0.8819
vn -0.2903 0.0000 -0.9569
vn -0.0980 0.0000 -0.9952
vn 0.0000 -1.0000 -0.0000
vn 0.0878 0.4455 -0.8910
vn 0.2599 0.4455 -0.8567
vn 0.4220 0.4455 -0.7896
vn 0.5680 0.4455 -0.6921
vn 0.6921 0.4455 -0.5680
vn 0.7896 0.4455 -0.4220
vn 0.8567 0.4455 -0.2599
vn 0.8910 0.4455 -0.0878
vn 0.8910 0.4455 0.0878
vn 0.8567 0.4455 0.2599
vn 0.7896 0.4455 0.4220
vn 0.6921 0.4455 0.5680
vn 0.5680 0.4455 0.6921
vn 0.4220 0.4455 0.7896
vn 0.2599 0.4455 0.8567
vn 0.0878 0.4455 0.8910
vn -0.0878 0.4455 0.8910
vn -0.2599 0.4455 0.8567
vn -0.4220 0.4455 0.7896
vn -0.5680 0.4455 0.6921
vn -0.6921 0.4455 0.5680
vn -0.7896 0.4455 0.4220
vn -0.8567 0.4455 0.2599
vn -0.8910 0.4455 0.0878
vn -0.8910 0.4455 -0.0878
vn -0.8567 0.4455 -0.2599
vn -0.7896 0.4455 -0.4220
vn -0.6921 0.4455 -0.5680
vn -0.5680 0.4455 -0.6921
vn -0.4220 0.4455 -0.7896
vn -0.2599 0.4455 -0.8567
vn -0.0878 0.4455 -0.8910
vn 0.0015 -1.0000 -0.0018
vn 0.0015 -1.0000 0.0018
vn -0.0021 -1.0000 0.0011
vn -0.0007 -1.0000 -0.0023
vn 0.0024 -1.0000 0.0002
vn -0.0007 -1.0000 0.0023
vn -0.0021 -1.0000 -0.0011
vn 0.0018 -1.0000 -0.0015
vn 0.0011 -1.0000 0.0021
vn -0.0023 -1.0000 0.0007
vn 0.0002 -1.0000 -0.0024
vn -0.0002 -1.0000 -0.0024
vn 0.0023 -1.0000 0.0007
vn -0.0011 -1.0000 0.0021
vn -0.0018 -1.0000 -0.0015
vn 0.0021 -1.0000 -0.0011
vn 0.0007 -1.0000 0.0023
vn -0.0024 -1.0000 0.0002
vn 0.0007 -1.0000 -0.0023
vn 0.0021 -1.0000 0.0011
vn -0.0015 -1.0000 0.0018
vn -0.0015 -1.0000 -0.0018
vn 0.0023 -1.0000 -0.0007
vn 0.0002 -1.0000 0.0024
vn -0.0024 -1.0000 -0.0002
vn 0.0011 -1.0000 -0.0021
vn 0.0018 -1.0000 0.0015
vn -0.0018 -1.0000 0.0015
vn -0.0011 -1.0000 -0.0021
vn 0.0024 -1.0000 -0.0002
vn -0.0002 -1.0000 0.0024
vn -0.0023 -1.0000 -0.0007
usemtl None
s off
f 1//1 2//1 4//1 3//1
f 3//2 4//2 6//2 5//2
f 5//3 6//3 8//3 7//3
f 7//4 8//4 10//4 9//4
f 9//5 10//5 12//5 11//5
f 11//6 12//6 14//6 13//6
f 13//7 14//7 16//7 15//7
f 15//8 16//8 18//8 17//8
f 17//9 18//9 20//9 19//9
f 19//10 20//10 22//10 21//10
f 21//11 22//11 24//11 23//11
f 23//12 24//12 26//12 25//12
f 25//13 26//13 28//13 27//13
f 27//14 28//14 30//14 29//14
f 29//15 30//15 32//15 31//15
f 31//16 32//16 34//16 33//16
f 33//17 34//17 36//17 35//17
f 35//18 36//18 38//18 37//18
f 37//19 38//19 40//19 39//19
f 39//20 40//20 42//20 41//20
f 41//21 42//21 44//21 43//21
f 43//22 44//22 46//22 45//22
f 45//23 46//23 48//23 47//23
f 47//24 48//24 50//24 49//24
f 49//25 50//25 52//25 51//25
f 51//26 52//26 54//26 53//26
f 53//27 54//27 56//27 55//27
f 55//28 56//28 58//28 57//28
f 57//29 58//29 60//29 59//29
f 59//30 60//30 62//30 61//30
f 61//31 62//31 64//31 63//31
f 63//32 64//32 2//32 1//32
f 1//33 3//33 5//33 7//33 9//33 11//33 13//33 15//33 17//33 19//33 21//33 23//33 25//33 27//33 29//33 31//33 33//33 35//33 37//33 39//33 41//33 43//33 45//33 47//33 49//33 51//33 53//33 55//33 57//33 59//33 61//33 63//33
f 65//34 74//34 66//34
f 66//35 74//35 67//35
f 67//36 74//36 68//36
f 68//37 74//37 69//37
f 69//38 74//38 70//38
f 70//39 74//39 71//39
f 71//40 74//40 72//40
f 72//41 74//41 73//41
f 73//42 74//42 75//42
f 75//43 74//43 76//43
f 76//44 74//44 77//44
f 77//45 74//45 78//45
f 78//46 74//46 79//46
f 79//47 74//47 80//47
f 80//48 74//48 81//48
f 81//49 74//49 82//49
f 82//50 74//50 83//50
f 83//51 74//51 84//51
f 84//52 74//52 85//52
f 85//53 74//53 86//53
f 86//54 74//54 87//54
f 87//55 74//55 88//55
f 88//56 74//56 89//56
f 89//57 74//57 90//57
f 90//58 74//58 91//58
f 91//59 74//59 92//59
f 92//60 74//60 93//60
f 93//61 74//61 94//61
f 94//62 74//62 95//62
f 95//63 74//63 96//63
f 96//64 74//64 97//64
f 97//65 74//65 65//65
f 10//66 8//66 68//66 69//66
f 28//67 26//67 78//67 79//67
f 46//68 44//68 87//68 88//68
f 64//69 62//69 96//69 97//69
f 20//70 18//70 73//70 75//70
f 38//71 36//71 83//71 84//71
f 56//72 54//72 92//72 93//72
f 12//73 10//73 69//73 70//73
f 30//74 28//74 79//74 80//74
f 48//75 46//75 88//75 89//75
f 4//76 2//76 65//76 66//76
f 2//77 64//77 97//77 65//77
f 22//78 20//78 75//78 76//78
f 40//79 38//79 84//79 85//79
f 58//80 56//80 93//80 94//80
f 14//81 12//81 70//81 71//81
f 32//82 30//82 80//82 81//82
f 50//83 48//83 89//83 90//83
f 6//84 4//84 66//84 67//84
f 24//85 22//85 76//85 77//85
f 42//86 40//86 85//86 86//86
f 60//87 58//87 94//87 95//87
f 16//88 14//88 71//88 72//88
f 34//89 32//89 81//89 82//89
f 52//90 50//90 90//90 91//90
f 8//91 6//91 67//91 68//91
f 26//92 24//92 77//92 78//92
f 44//93 42//93 86//93 87//93
f 62//94 60//94 95//94 96//94
f 18//95 16//95 72//95 73//95
f 36//96 34//96 82//96 83//96
f 54//97 52//97 91//97 92//97
